<?xml version="1.0" encoding="UTF-8"?>
<svg id="Capa_1" data-name="Capa 1" xmlns="http://www.w3.org/2000/svg" viewBox="0 0 505.44 102.7">
  <defs>
    <style>
      .cls-1 {
        fill: #e6e6e6;
      }

      .cls-2 {
        fill: #7bce5f;
      }
    </style>
  </defs>
  <path class="cls-2" d="M93.95,47.4v53.32h-27.93v-21.87H27.51v21.87H0V47.4C0,16.93,19.04,0,46.98,0s46.98,16.93,46.98,47.4Zm-27.93,9.88v-12.27c0-14.95-7.9-21.87-19.19-21.87s-19.33,6.91-19.33,21.87v12.27h38.51Z"/>
  <path class="cls-2" d="M162.79,22.99v24.12c-2.4-.28-4.09-.42-6.07-.42-10.86,0-18.34,5.5-18.34,18.9v35.13h-26.8V24.26h25.53v9.17c5.5-6.91,14.39-10.44,25.67-10.44Z"/>
  <path class="cls-2" d="M223.03,97.62c-4.66,2.96-11.57,4.37-18.62,4.37-19.61,0-30.89-9.59-30.89-29.2V7.19h26.8V27.08h17.35v20.03h-17.35v25.39c0,5.64,3.1,8.75,7.9,8.75,2.96,0,5.92-.85,8.18-2.4l6.63,18.76Z"/>
  <path class="cls-1" d="M268.73,91.83l9.17-20.6c8.75,5.78,21.16,9.73,32.59,9.73s16.08-3.24,16.08-8.04c0-15.66-56.15-4.23-56.15-40.91,0-17.63,14.39-32.02,43.73-32.02,12.84,0,26.1,2.96,35.83,8.6l-8.6,20.74c-9.45-5.08-18.76-7.62-27.37-7.62-11.71,0-15.94,3.95-15.94,8.89,0,15.09,56,3.81,56,40.2,0,17.21-14.39,31.88-43.73,31.88-16.22,0-32.3-4.37-41.61-10.86Z"/>
  <path class="cls-1" d="M424.19,74.91l13.97,14.67c-7.19,8.18-17.92,12.41-32.45,12.41-27.23,0-44.86-16.79-44.86-39.64s18.06-39.36,42.32-39.36c22.01,0,40.49,13.97,40.63,38.93l-54.59,10.44c2.96,6.21,8.89,9.17,17.35,9.17,7.48,0,12.41-2.12,17.63-6.63Zm-37.1-16.22l31.03-6.07c-1.83-6.35-7.34-10.58-14.81-10.58-9.17,0-15.38,5.78-16.22,16.65Z"/>
  <path class="cls-1" d="M505.44,97.62c-4.66,2.96-11.57,4.37-18.62,4.37-19.61,0-30.89-9.59-30.89-29.2V7.19h26.8V27.08h17.35v20.03h-17.35v25.39c0,5.64,3.1,8.75,7.9,8.75,2.96,0,5.92-.85,8.18-2.4l6.63,18.76Z"/>
</svg>