<?xml version="1.0" encoding="UTF-8"?>
<svg id="Capa_1" data-name="Capa 1" xmlns="http://www.w3.org/2000/svg" xmlns:xlink="http://www.w3.org/1999/xlink" viewBox="0 0 3245.03 548.33">
  <defs>
    <style>
      .cls-1 {
        fill: url(#Degradado_sin_nombre_10-3);
      }

      .cls-2 {
        fill: #f3ebf6;
      }

      .cls-3 {
        filter: url(#outer-glow-1);
      }

      .cls-4 {
        fill: url(#Degradado_sin_nombre_10-4);
      }

      .cls-5 {
        fill: url(#Degradado_sin_nombre_10-2);
      }

      .cls-6 {
        fill: url(#Degradado_sin_nombre_10);
      }
    </style>
    <filter id="outer-glow-1" filterUnits="userSpaceOnUse">
      <feOffset dx="0" dy="0"/>
      <feGaussianBlur result="blur" stdDeviation="15"/>
      <feFlood flood-color="#f3ebf6" flood-opacity=".75"/>
      <feComposite in2="blur" operator="in"/>
      <feComposite in="SourceGraphic"/>
    </filter>
    <linearGradient id="Degradado_sin_nombre_10" data-name="Degradado sin nombre 10" x1="242.22" y1="439.17" x2="392.81" y2="439.17" gradientUnits="userSpaceOnUse">
      <stop offset="0" stop-color="#2fcd00"/>
      <stop offset="1" stop-color="#71d650"/>
    </linearGradient>
    <linearGradient id="Degradado_sin_nombre_10-2" data-name="Degradado sin nombre 10" x1="868.03" y1="198.22" x2="1018.63" y2="198.22" xlink:href="#Degradado_sin_nombre_10"/>
    <linearGradient id="Degradado_sin_nombre_10-3" data-name="Degradado sin nombre 10" x1="1329.86" y1="198.22" x2="1480.46" y2="198.22" xlink:href="#Degradado_sin_nombre_10"/>
    <linearGradient id="Degradado_sin_nombre_10-4" data-name="Degradado sin nombre 10" x1="3094.43" y1="191.82" x2="3245.03" y2="191.82" xlink:href="#Degradado_sin_nombre_10"/>
  </defs>
  <g class="cls-3">
    <path class="cls-2" d="m0,536.34L229.22,11.99h173.79l229.22,524.36h-182.78L280.16,95.88h68.92l-169.29,440.46H0Z"/>
    <path class="cls-2" d="m1084.59,272.66v-123.6h225.19v123.6h-225.19Zm225.19,271.93c-56.44,0-90.36-14.36-121.82-41.58-31.46-27.21-47.19-69.03-47.19-125.47V34.46h169.29v341.58c0,12.49,3.37,22.23,10.11,29.21,6.74,7,15.1,10.49,25.09,10.49,14.48,0,27.21-3.75,38.2-11.24l6.63,130.05c-6.69,3.35-8.55,3.21-26.77,6.69-18.23,3.49-33.58,3.35-53.55,3.35Z"/>
    <path class="cls-2" d="m2046.02,548.33c-43.95,0-86.4-5-127.34-14.98-40.95-9.98-74.66-22.96-101.12-38.95l56.93-128.84c24.97,14.49,52.81,26.1,83.52,34.83,30.71,8.74,60.55,13.11,89.52,13.11,16.97,0,30.34-1.12,40.07-3.37,9.74-2.25,16.85-5.49,21.35-9.74,4.49-4.24,6.74-9.36,6.74-15.36,0-9.48-5.24-16.97-15.73-22.47-10.49-5.49-24.34-10.11-41.57-13.86-17.23-3.75-36.08-7.74-56.56-11.98-20.48-4.24-41.08-9.86-61.8-16.86-20.73-6.99-39.7-16.22-56.93-27.72-17.23-11.48-31.09-26.59-41.57-45.32-10.49-18.73-15.73-42.06-15.73-70.04,0-32.46,9.11-62.04,27.34-88.77,18.22-26.71,45.44-48.06,81.65-64.05,36.2-15.98,81.28-23.97,135.21-23.97,35.45,0,70.41,3.75,104.87,11.24,34.46,7.49,65.42,18.98,92.88,34.46l-53.19,128.09c-25.97-12.98-51.07-22.72-75.28-29.21-24.23-6.48-47.82-9.74-70.79-9.74-16.98,0-30.47,1.5-40.45,4.49-9.99,3-17.11,7-21.35,11.99-4.25,5-6.37,10.49-6.37,16.48,0,8.99,5.24,16.11,15.73,21.35,10.49,5.24,24.34,9.62,41.57,13.11,17.23,3.5,36.2,7.25,56.93,11.24,20.72,4,41.32,9.49,61.8,16.48,20.47,7,39.33,16.23,56.56,27.72,17.23,11.49,31.09,26.48,41.57,44.95,10.49,18.48,15.73,41.46,15.73,68.92,0,31.96-9.12,61.31-27.34,88.02-18.24,26.72-45.32,48.2-81.28,64.42-35.95,16.22-81.16,24.35-135.58,24.35Z"/>
    <path class="cls-2" d="m2573.68,543.83c-49.94,0-93.52-9.23-130.71-27.72-37.21-18.47-66.05-43.82-86.52-76.03-20.48-32.21-30.71-68.54-30.71-108.99s10.11-78.15,30.34-110.12c20.23-31.95,47.94-56.93,83.15-74.91,35.21-17.98,74.78-26.97,118.73-26.97,40.45,0,77.78,7.99,111.99,23.97,34.2,15.99,61.67,39.7,82.4,71.16,20.72,31.46,31.09,70.41,31.09,116.86,0,5.99-.26,12.62-.75,19.85-.5,7.25-1.01,13.86-1.5,19.85h-315.36v-81.65h225.47l-63.67,21.72c0-15.98-2.88-29.59-8.61-40.82-5.75-11.24-13.61-19.97-23.6-26.22-9.99-6.24-21.98-9.36-35.96-9.36s-26.1,3.12-36.33,9.36c-10.24,6.25-18.11,14.98-23.6,26.22-5.5,11.24-8.24,24.85-8.24,40.82v25.47c0,17.49,3.49,32.47,10.49,44.95,6.99,12.49,16.97,21.85,29.96,28.09,12.98,6.25,28.71,9.36,47.19,9.36s34.57-2.49,46.82-7.49c12.23-4.99,25.09-12.48,38.58-22.47l88.39,89.14c-19.98,21.48-44.57,37.83-73.78,49.06-29.21,11.24-64.3,16.85-105.25,16.85Z"/>
    <rect class="cls-2" x="690.66" y="122.92" width="163.98" height="411.63"/>
    <circle class="cls-6" cx="317.52" cy="439.17" r="75.3"/>
    <circle class="cls-5" cx="943.33" cy="198.22" r="75.3"/>
    <circle class="cls-1" cx="1405.16" cy="198.22" r="75.3"/>
    <path class="cls-2" d="m2849.16,266.27v-123.6h225.19v123.6h-225.19Zm225.19,271.93c-56.44,0-90.36-14.36-121.82-41.58-31.46-27.21-47.19-69.03-47.19-125.47V28.06h169.29v341.58c0,12.49,3.37,22.23,10.11,29.21,6.74,7,15.1,10.49,25.09,10.49,14.48,0,27.21-3.75,38.2-11.24l6.63,130.05c-6.69,3.35-8.55,3.21-26.77,6.69-18.23,3.49-33.58,3.35-53.55,3.35Z"/>
    <circle class="cls-4" cx="3169.73" cy="191.82" r="75.3"/>
  </g>
</svg>