<?xml version="1.0" encoding="UTF-8"?>
<svg id="Capa_1" data-name="Capa 1" xmlns="http://www.w3.org/2000/svg" viewBox="0 0 379.14 98.78">
  <defs>
    <style>
      .cls-1 {
        fill: #fff;
      }

      .cls-2 {
        fill: #283480;
      }

      .cls-3 {
        fill: #009ee2;
      }
    </style>
  </defs>
  <g>
    <path class="cls-2" d="m138.84,45.4C138.84,20.39,107.76,0,69.42,0S0,20.39,0,45.4c0,.65,0,2.43,0,2.66,0,26.54,27.16,48.03,69.41,48.03s69.43-21.49,69.43-48.02v-2.66Z"/>
    <path class="cls-3" d="m136.18,45.38c0,23.58-29.88,42.7-66.75,42.7S2.69,68.96,2.69,45.38,32.57,2.68,69.44,2.68s66.75,19.12,66.75,42.7Z"/>
    <g>
      <path class="cls-1" d="m47.27,31.91c-.04.07-.7.76-.27,1.31,1.05,1.35,4.31,2.12,7.6,1.38,1.96-.44,4.47-2.44,6.9-4.37,2.64-2.09,5.25-4.19,7.88-5.03,2.78-.89,4.57-.51,5.75-.15,1.29.39,2.81,1.24,5.24,3.06,4.57,3.43,22.93,19.46,26.1,22.23,2.56-1.15,13.91-6.04,29.35-9.45-1.34-8.23-6.35-15.76-13.94-21.92-10.58,4.44-23.51,6.76-36.15.59-.06-.03-6.91-3.26-13.66-3.11-10.03.23-14.38,4.57-18.98,9.17l-5.82,6.28Z"/>
      <path class="cls-1" d="m105.72,52.09c-.21-.19-21.59-18.9-26.44-22.54-2.8-2.1-4.36-2.64-6-2.85-.85-.11-2.03.05-2.85.27-2.25.61-5.2,2.58-7.81,4.66-2.71,2.16-5.26,4.19-7.63,4.72-3.03.68-6.72-.12-8.41-1.26-.68-.46-1.16-.99-1.4-1.53-.62-1.44.53-2.6.71-2.79l5.9-6.38c.69-.68,1.38-1.37,2.08-2.04-1.9.25-3.66.73-5.38,1.21-2.14.6-4.19,1.17-6.27,1.17-.87,0-5.52-.76-6.4-1-5.34-1.46-10.02-2.88-17.02-6.15-8.39,6.24-14,14.05-15.62,22.65,1.21.32,3.15.9,3.96,1.08,18.98,4.22,24.89,8.57,25.96,9.47,1.16-1.29,2.83-2.11,4.71-2.11,2.1,0,3.99,1.06,5.14,2.69,1.09-.86,2.59-1.59,4.52-1.59.88,0,1.79.16,2.71.48,2.14.73,3.25,2.16,3.82,3.45.72-.32,1.6-.56,2.64-.56,1.02,0,2.08.23,3.16.7,3.5,1.5,4.04,4.94,3.73,7.53.25-.03.5-.04.75-.04,4.15,0,7.52,3.38,7.52,7.53,0,1.28-.33,2.49-.9,3.55,1.13.63,4.01,2.07,6.53,1.75,2.02-.25,2.79-.94,3.06-1.33.19-.27.39-.58.2-.8l-5.36-5.95s-.88-.83-.59-1.16c.3-.33.85.14,1.23.47,2.73,2.28,6.05,5.71,6.05,5.71.06.04.28.47,1.51.69,1.06.19,2.93.08,4.23-.99.33-.27.66-.61.93-.95-.02.02-.04.04-.06.05,1.37-1.75-.15-3.53-.15-3.53l-6.25-7.02s-.89-.83-.59-1.16c.27-.29.85.15,1.24.47,1.98,1.66,4.78,4.46,7.46,7.09.52.38,2.88,1.84,6-.21,1.89-1.24,2.27-2.77,2.22-3.92-.13-1.52-1.32-2.61-1.32-2.61l-8.54-8.59s-.9-.77-.58-1.16c.26-.33.85.14,1.23.47,2.72,2.28,10.09,9.03,10.09,9.03.1.07,2.65,1.89,5.79-.12,1.12-.72,1.84-1.8,1.9-3.06.11-2.18-1.43-3.48-1.43-3.48Z"/>
      <path class="cls-1" d="m64.3,62.98c-1.32-.02-2.77.77-2.96.66-.1-.07.08-.6.21-.91.13-.3,1.87-5.55-2.38-7.37-3.25-1.4-5.24.17-5.92.88-.18.19-.26.17-.28-.07-.07-.94-.49-3.5-3.3-4.36-4.01-1.23-6.59,1.57-7.25,2.58-.29-2.29-2.23-4.06-4.59-4.06-2.57,0-4.66,2.08-4.66,4.65,0,2.57,2.08,4.66,4.66,4.66,1.25,0,2.38-.5,3.22-1.3.03.02.04.07.02.16-.2,1.15-.56,5.34,3.83,7.04,1.76.68,3.25.17,4.49-.69.37-.26.43-.15.38.2-.16,1.08.04,3.38,3.27,4.69,2.46,1,3.91-.02,4.87-.9.42-.38.53-.32.55.27.12,3.12,2.71,5.59,5.85,5.59,3.24,0,5.86-2.62,5.86-5.85,0-3.24-2.62-5.83-5.86-5.86Z"/>
    </g>
    <path class="cls-2" d="m106.55,49.85c-6.58-5.75-21.8-18.98-25.93-22.07-2.35-1.77-3.96-2.71-5.37-3.13-.63-.19-1.51-.41-2.64-.41-1.05,0-2.17.19-3.35.56-2.66.84-5.32,2.95-7.88,4.99l-.13.1c-2.39,1.9-4.86,3.87-6.73,4.29-.82.18-1.66.28-2.49.28-2.09,0-3.98-.61-4.68-1.51-.12-.15-.04-.39.23-.74l.04-.05,5.79-6.24c4.54-4.54,8.82-8.82,18.69-9.05.16,0,.33,0,.49,0,6.14,0,12.28,2.75,12.97,3.07,5.76,2.81,11.7,4.24,17.67,4.24,6.23,0,12.65-1.54,19.4-4.65-.75-.63-1.54-1.25-2.35-1.86-5.93,2.57-11.59,3.87-17.04,3.87-5.57,0-11.14-1.34-16.54-3.98-.29-.14-7.06-3.33-14.12-3.33-.18,0-.37,0-.56,0-8.29.19-12.95,3.14-16.09,5.71-3.05.07-5.69.81-8.03,1.46-2.09.58-3.9,1.09-5.66,1.08-.73,0-2.03-.07-2.15-.07-2.03-.06-12.23-2.56-20.35-5.64-.83.59-1.63,1.19-2.4,1.81,8.48,3.48,18.8,6.17,22.06,6.38.91.06,1.87.16,2.84.16,2.15,0,4.3-.6,6.39-1.19,1.23-.35,2.58-.72,4.01-.99-.38.37-.76.75-1.14,1.13l-5.89,6.37c-.46.47-1.47,1.72-.81,3.25.26.62.8,1.21,1.55,1.72,1.4.94,3.91,1.58,6.25,1.58.88,0,1.72-.09,2.49-.26,2.47-.55,5.05-2.62,7.8-4.79,2.18-1.74,5.29-3.94,7.66-4.59.66-.18,1.48-.29,2.13-.29.2,0,.38,0,.55.03,1.57.2,3.09.73,5.8,2.77,4.83,3.63,26.21,22.33,26.42,22.52.01.01,1.38,1.19,1.28,3.14-.05,1.09-.66,2.06-1.71,2.73-.91.58-1.85.87-2.81.87-1.43,0-2.41-.67-2.48-.72-.08-.06-7.4-6.78-10.1-9.04-.43-.36-.85-.68-1.27-.68-.23,0-.42.09-.56.26-.42.52.05,1.25.61,1.72l8.56,8.6s1.07,1,1.18,2.32c.07,1.43-.61,2.62-2.03,3.55-1.01.66-2.03,1-3.03,1-1.31,0-2.24-.6-2.44-.74l-1.23-1.21c-2.24-2.21-4.56-4.49-6.25-5.9-.41-.34-.86-.66-1.28-.66-.21,0-.4.08-.54.23-.19.21-.33.6.15,1.24.2.26.43.48.43.48l6.24,7.01c.05.06,1.29,1.53.14,2.99l-.22.28c-.19.21-.39.4-.58.56-1.07.87-2.49.97-3.05.97-.3,0-.59-.03-.84-.07-.62-.11-1.03-.28-1.23-.52l-.08-.08c-.34-.35-3.49-3.57-6.09-5.74-.34-.29-.77-.65-1.21-.65-.22,0-.41.09-.56.25-.52.56.26,1.41.59,1.72l5.33,5.87c0,.05-.07.17-.2.36-.19.26-.84.91-2.77,1.15-.23.03-.47.04-.71.04-1.99,0-4.12-.97-5.21-1.55.5-1.05.76-2.21.76-3.38,0-4.38-3.56-7.95-7.94-7.95-.09,0-.19,0-.29,0,.14-2-.14-5.79-4.03-7.46-1.12-.48-2.24-.73-3.32-.73-.85,0-1.67.15-2.43.44-.81-1.57-2.14-2.71-3.89-3.3-.96-.33-1.92-.5-2.85-.5-1.62,0-3.11.48-4.44,1.42-1.27-1.59-3.2-2.52-5.23-2.52-1.77,0-3.48.71-4.74,1.96-1.66-1.27-8.23-5.44-25.83-9.44-.85-.19-2.81-.75-4.01-1.1-.2.95-.35,1.92-.45,2.89,0,0,3.25.78,3.88.92,17.98,3.99,23.92,8.15,24.92,8.93-.34.82-.52,1.7-.52,2.59,0,3.71,3.02,6.74,6.74,6.74.42,0,.83-.04,1.24-.11.56,2.73,2.35,4.81,5.08,5.87.8.31,1.61.46,2.4.46.51,0,1.03-.06,1.53-.19.5,1.28,1.64,2.88,4.18,3.91.89.36,1.78.55,2.65.55.71,0,1.4-.12,2.06-.37,1.22,2.96,4.11,4.93,7.34,4.93,2.14,0,4.19-.87,5.69-2.41,1.28.71,3.99,2,6.73,2.01.35,0,.69-.03,1.02-.06,2.72-.34,3.98-1.41,4.56-2.23.1-.14.2-.3.28-.46.64.18,1.35.33,2.15.34,1.48,0,2.91-.51,4.35-1.55,1.41-1.02,2.42-2.48,2.56-3.73,0-.02,0-.04,0-.05.48.1.97.15,1.45.15,1.53,0,3.03-.48,4.47-1.42,2.77-1.82,3.25-4.19,3.2-5.74.48.1.98.15,1.47.15,1.43,0,2.84-.43,4.18-1.29,1.72-1.1,2.75-2.78,2.91-4.73.11-1.33-.22-2.67-.92-3.82,4.64-2,15.25-5.87,27.73-8.68-.08-.97-.21-1.92-.39-2.88-15.11,3.35-26.39,8.23-29.21,9.49Zm-42.25,24.42c-2.93,0-5.32-2.28-5.43-5.19,0-.25-.03-.91-.59-.91-.23,0-.43.14-.66.35-.64.6-1.47,1.21-2.67,1.21-.54,0-1.13-.13-1.76-.38-3.1-1.25-3.14-3.38-3.02-4.24.03-.23.05-.47-.11-.65l-.19-.17h-.19c-.16,0-.32.06-.54.22-.9.63-1.76.94-2.63.94-.48,0-.97-.1-1.47-.29-4.08-1.59-3.76-5.44-3.56-6.6.03-.23-.03-.42-.18-.54l-.29-.24-.27.26c-.8.77-1.83,1.19-2.93,1.19-2.34,0-4.24-1.9-4.24-4.24,0-2.34,1.91-4.24,4.24-4.23,2.11,0,3.91,1.59,4.18,3.7l.15,1.14.62-.96c.07-.11,1.78-2.7,4.93-2.7.6,0,1.22.1,1.84.29,2.51.77,2.93,3.04,3,3.99.04.55.44.58.51.58.22,0,.38-.14.49-.26.47-.49,1.5-1.32,3.12-1.32.74,0,1.52.18,2.34.53,3.99,1.71,2.18,6.78,2.16,6.83-.34.84-.36,1.21-.03,1.42l.16.08h.12c.18,0,.4-.08.77-.2.54-.19,1.36-.47,2.13-.47h0c3,.03,5.44,2.48,5.44,5.44,0,3-2.45,5.43-5.45,5.43Z"/>
  </g>
  <g>
    <path class="cls-2" d="m375.38,16.47c-2.5-3.14-6.31-4.71-11.41-4.71s-8.9,1.57-11.41,4.71c-2.51,3.14-3.76,6.85-3.76,11.13s1.25,8.08,3.76,11.18c2.5,3.09,6.31,4.64,11.41,4.64s8.91-1.55,11.41-4.64c2.51-3.1,3.76-6.82,3.76-11.18s-1.25-7.99-3.76-11.13Zm-6.21,18.01c-1.22,1.61-2.96,2.42-5.23,2.42s-4.02-.81-5.24-2.42c-1.23-1.61-1.84-3.91-1.84-6.88s.61-5.26,1.84-6.87c1.23-1.6,2.97-2.41,5.24-2.41s4.01.8,5.23,2.41c1.21,1.6,1.82,3.89,1.82,6.87s-.61,5.27-1.82,6.88Z"/>
    <path class="cls-2" d="m311.34,13.85c-2.54-1.29-5.45-1.94-8.72-1.94-5.03,0-8.58,1.31-10.65,3.93-1.3,1.68-2.03,3.82-2.2,6.42h7.52c.18-1.15.55-2.06,1.11-2.73.78-.91,2.09-1.37,3.96-1.37,1.66,0,2.92.23,3.79.7.86.46,1.29,1.31,1.29,2.52,0,1-.56,1.74-1.68,2.21-.62.27-1.66.5-3.11.68l-2.66.33c-3.03.38-5.32,1.02-6.88,1.91-2.85,1.64-4.27,4.29-4.27,7.95,0,2.82.88,5,2.65,6.54,1.76,1.54,4.01,2.18,6.72,2.31,17,.76,16.8-8.96,16.96-10.98v-11.18c0-3.59-1.27-6.03-3.81-7.32Zm-3.95,16.97c-.05,2.6-.8,4.4-2.23,5.38-1.43.98-3,1.48-4.7,1.48-1.08,0-1.99-.3-2.74-.89-.75-.59-1.12-1.55-1.12-2.88,0-1.49.61-2.59,1.84-3.3.73-.42,1.92-.78,3.58-1.06l1.78-.33c.88-.17,1.58-.35,2.09-.54.51-.19,1.01-.43,1.51-.75v2.9Z"/>
    <path class="cls-2" d="m272.59,18.57c1.94,0,3.37.6,4.29,1.8.63.89,1.03,1.89,1.18,3h8.38c-.46-4.23-1.94-7.18-4.44-8.86-2.51-1.67-5.72-2.51-9.64-2.51-4.62,0-8.25,1.42-10.86,4.25-2.63,2.84-3.94,6.8-3.94,11.89,0,4.51,1.19,8.19,3.56,11.02,2.38,2.83,6.08,4.25,11.12,4.25s8.85-1.7,11.41-5.09c1.61-2.1,2.51-4.34,2.7-6.7h-8.36c-.17,1.56-.66,2.84-1.47,3.82-.81.98-2.16,1.47-4.09,1.47-2.71,0-4.55-1.23-5.53-3.71-.54-1.32-.81-3.07-.81-5.24,0-2.28.27-4.11.81-5.49,1.02-2.59,2.91-3.89,5.67-3.89Z"/>
    <path class="cls-2" d="m255.31,12.01c-17.22,0-16.2,15.25-16.2,15.25v15.49h7.82v-14.53c0-2.38.3-4.14.9-5.29,1.07-2.03,3.17-3.05,6.29-3.05.24,0,.54.01.93.03.38.02.81.05,1.31.11v-7.95c-.35-.02-.57-.03-.67-.04-.1,0-.22-.02-.37-.02Z"/>
    <path class="cls-2" d="m226.6,34.65c-.33.47-.68.87-1.07,1.18-1.1.91-2.6,1.19-4.37,1.19-1.67,0-2.98-.25-4.16-1-1.95-1.2-3.05-3.23-3.16-6.2h21.62c.03-2.56-.05-4.53-.26-5.89-.36-2.33-1.15-4.38-2.36-6.14-1.35-2-3.06-3.46-5.13-4.39-2.07-.92-4.39-1.39-6.98-1.39-4.35,0-7.89,1.37-10.62,4.11-2.73,2.75-4.09,6.69-4.09,11.83,0,5.49,1.51,9.45,4.53,11.89,3.02,2.43,6.51,3.65,10.46,3.65,4.79,0,8.51-1.44,11.17-4.33,1.43-1.52,2.33-3.02,2.71-4.51h-8.29Zm-10.51-14.55c1.1-1.13,2.64-1.7,4.63-1.7,1.83,0,3.37.53,4.61,1.6,1.23,1.07,1.92,2.63,2.06,4.69h-13.37c.28-1.93.97-3.46,2.07-4.59Z"/>
    <path class="cls-2" d="m202.88,42.74h-7.14v-17.98c0-1.64-.54-5.55-5.25-5.55-3.14,0-5.41,2.26-5.41,5.55v17.98h-7.15v-17.98c0-1.64-.49-5.55-5.19-5.55-3.19,0-5.41,2.26-5.41,5.55v17.98h-7.14v-17.8c0-7.42,4.92-13.03,12.56-13.03,3.79,0,6.87,1.59,8.88,4.14,2.11-2.55,5.25-4.14,8.87-4.14,7.79,0,12.39,5.38,12.39,13.03v17.8Z"/>
    <path class="cls-2" d="m346.47,2.62s-7.87-.84-7.87,5.48v8.37c-.88-1.4-2.01-2.49-3.41-3.28-1.39-.79-2.99-1.19-4.79-1.19-3.9,0-7.02,1.45-9.35,4.36-2.34,2.91-3.5,7.1-3.5,12.16,0,4.39,1.18,8,3.55,10.8,2.37,2.8,7.02,4.03,11.14,4.03,14.39,0,14.22-12.34,14.22-12.34V2.62Zm-9.37,31.93c-1.14,1.64-2.82,2.45-5.01,2.45s-3.84-.82-4.92-2.47c-1.08-1.65-1.62-4.04-1.62-6.78,0-2.54.53-4.67,1.59-6.39,1.06-1.71,2.72-2.58,5-2.58,1.49,0,2.8.47,3.92,1.42,1.83,1.56,2.75,4.37,2.75,7.99,0,2.6-.57,4.71-1.72,6.35Z"/>
  </g>
  <g>
    <path class="cls-3" d="m217.25,92.35c0,1.06-.38,1.97-1.15,2.72-.76.76-1.68,1.13-2.76,1.13h-3.9v-27.16c0-5.28,1.78-8.59,4.71-10.82,1.94-1.48,4.82-2.89,10.22-2.89,3.65,0,7.92,1.42,10.23,4.23,2.59,3.16,3.67,6.69,3.67,11.3s-1.15,8.61-3.44,11.56c-2.3,2.88-5.25,4.31-8.85,4.31-1.91,0-3.6-.34-5.05-1.02-1.54-.76-2.76-1.93-3.68-3.52v10.15Zm13.1-21.15c0-2.95-.57-5.21-1.73-6.8-1.15-1.58-2.79-2.38-4.94-2.38s-3.67.8-4.83,2.38c-1.07,1.44-1.6,3.71-1.6,6.8,0,2.88.57,5.03,1.72,6.46,1.15,1.59,2.79,2.38,4.94,2.38,1.99,0,3.56-.79,4.71-2.38,1.15-1.59,1.73-3.73,1.73-6.46"/>
    <path class="cls-3" d="m290.06,84.23v-1.92c-1.35,2.12-3.18,3.43-5.47,3.96-2.3.52-4.57.34-6.82-.57-2.26-.9-4.2-2.58-5.82-5.04-1.61-2.46-2.42-5.69-2.42-9.69,0-4.68,1.07-8.47,3.21-11.38,2.15-2.91,5.59-4.23,10.33-4.36,4.67-.12,7.38.93,10.04,2.95,2.91,2.21,4.62,5.59,4.62,10.87v15.98c.01,5.08-3.53,14.51-14.67,13.71-6.9-.5-10.73-3.33-12.86-9.74h8.24c.6,1.05,1.52,1.87,2.77,2.43,1.23.57,2.48.72,3.72.46,1.24-.26,2.37-1,3.39-2.21,1.01-1.21,1.59-3.02,1.75-5.44m-12.87-13.02c0,5.21,1.51,8.1,4.52,8.67,3,.56,5.23-.14,6.66-2.1.68-.83,1.16-2.13,1.47-3.9.3-1.77.32-3.53.06-5.27-.26-1.74-.88-3.29-1.86-4.65-.97-1.36-2.41-2.04-4.29-2.04-2.56,0-4.28.95-5.19,2.83-.91,1.89-1.36,4.04-1.36,6.46"/>
    <path class="cls-3" d="m262.84,57.39c-2.54-1.29-5.45-1.94-8.72-1.94-5.03,0-8.58,1.31-10.65,3.93-1.3,1.68-2.03,3.82-2.2,6.42h7.52c.18-1.15.55-2.06,1.11-2.73.78-.91,2.09-1.37,3.95-1.37,1.67,0,2.93.23,3.78.7.86.46,1.29,1.31,1.29,2.53,0,1-.56,1.74-1.68,2.21-.62.27-1.66.5-3.11.68l-2.66.33c-3.03.38-5.33,1.02-6.88,1.92-2.85,1.64-4.27,4.29-4.27,7.95,0,2.82.88,5,2.65,6.54,1.76,1.54,4.01,2.19,6.72,2.31,16.99.76,16.8-8.96,16.96-10.98v-11.18c0-3.59-1.27-6.03-3.81-7.32m-3.95,16.97c-.05,2.61-.8,4.4-2.23,5.38-1.43.98-3,1.47-4.7,1.47-1.08,0-1.99-.3-2.73-.89-.75-.59-1.13-1.55-1.13-2.88,0-1.49.61-2.59,1.84-3.3.73-.42,1.92-.78,3.58-1.06l1.77-.33c.89-.17,1.58-.34,2.08-.54.52-.19,1.01-.43,1.51-.75v2.9Z"/>
    <path class="cls-3" d="m327.29,59.85c-2.51-3.14-6.31-4.71-11.42-4.71s-8.9,1.57-11.41,4.71c-2.51,3.14-3.76,6.84-3.76,11.13s1.25,8.08,3.76,11.17c2.51,3.09,6.31,4.64,11.41,4.64s8.91-1.55,11.42-4.64c2.5-3.1,3.75-6.82,3.75-11.17s-1.25-7.99-3.75-11.13m-6.21,18c-1.21,1.62-2.96,2.42-5.23,2.42s-4.02-.81-5.24-2.42c-1.23-1.61-1.84-3.91-1.84-6.88s.61-5.26,1.84-6.86c1.22-1.61,2.97-2.41,5.24-2.41s4.01.8,5.23,2.41c1.22,1.6,1.82,3.89,1.82,6.86s-.61,5.27-1.82,6.88"/>
  </g>
</svg>