<svg id="Layer_1" data-name="Layer 1" xmlns="http://www.w3.org/2000/svg" viewBox="0 0 763.756 874.277">
  <g>
    <g>
      <path d="M160.5,694.238a1.683,1.683,0,0,1-1.682-1.683V679.413a27.365,27.365,0,1,0-54.73,0v13.142a1.683,1.683,0,1,1-3.366,0V679.413a30.731,30.731,0,1,1,61.461,0v13.142A1.683,1.683,0,0,1,160.5,694.238Z" fill="#494945"></path>
      <rect x="164.949" y="681.198" width="35.41" height="191.114" fill="#6D7ECE"></rect>
      <rect x="164.949" y="681.198" width="35.41" height="191.114" fill="#0a0a0a" opacity="0.21"></rect>
      <rect x="27.127" y="681.198" width="137.822" height="191.114" fill="#6D7ECE"></rect>
      <path d="M125.087,694.238a1.683,1.683,0,0,1-1.682-1.683V679.413a27.366,27.366,0,1,0-54.731,0v13.142a1.683,1.683,0,1,1-3.365,0V679.413a30.731,30.731,0,1,1,61.461,0v13.142A1.683,1.683,0,0,1,125.087,694.238Z" fill="#494945"></path>
      <polygon points="164.949 681.198 182.654 700.266 200.358 681.198 164.949 681.198" fill="#0a0a0a" opacity="0.11"></polygon>
      <polygon points="164.949 872.312 182.654 853.244 200.358 872.312 164.949 872.312" fill="#0a0a0a" opacity="0.11"></polygon>
    </g>
    <g>
      <g>
        <rect x="214.979" width="381.125" height="777.264" rx="43.928" fill="#292a2e"></rect>
        <rect x="228.881" y="13.717" width="353.321" height="748.805" rx="30.164" fill="#fff"></rect>
        <path d="M333.179,8.046H477.9a0,0,0,0,1,0,0V23.021A16.194,16.194,0,0,1,461.71,39.215H349.373a16.194,16.194,0,0,1-16.194-16.194V8.046A0,0,0,0,1,333.179,8.046Z" fill="#292a2e"></path>
      </g>
      <g>
        <g opacity="0.15">
          <path d="M550.481,244.9H260.6a15.129,15.129,0,0,1-15.112-15.112V76.869A15.129,15.129,0,0,1,260.6,61.757H550.481a15.129,15.129,0,0,1,15.112,15.112V229.788A15.129,15.129,0,0,1,550.481,244.9ZM260.6,63.757A13.127,13.127,0,0,0,247.49,76.869V229.788A13.126,13.126,0,0,0,260.6,242.9H550.481a13.126,13.126,0,0,0,13.112-13.112V76.869a13.127,13.127,0,0,0-13.112-13.112Z" fill="#292a2e"></path>
        </g>
        <g opacity="0.43">
          <circle cx="412.366" cy="95.313" r="9.391" fill="#71D650"></circle>
          <circle cx="442.366" cy="95.313" r="9.391" fill="#71D650"></circle>
          <circle cx="472.366" cy="95.313" r="9.391" fill="#71D650"></circle>
          <circle cx="502.366" cy="95.313" r="9.391" fill="#71D650"></circle>
          <circle cx="532.366" cy="95.313" r="9.391" fill="#71D650"></circle>
        </g>
        <g opacity="0.15">
          <rect x="405.541" y="124.366" width="136.216" height="2" fill="#292a2e"></rect>
        </g>
        <g opacity="0.15">
          <rect x="405.541" y="144.366" width="136.216" height="2" fill="#292a2e"></rect>
        </g>
        <g opacity="0.15">
          <rect x="405.541" y="164.366" width="72.362" height="2" fill="#292a2e"></rect>
        </g>
        <g opacity="0.15">
          <path d="M542.757,218.921H496.235V204.105h46.522Zm-44.522-2h42.522V206.105H498.235Z" fill="#292a2e"></path>
        </g>
        <rect x="433.08" y="205.104" width="44.522" height="12.816" fill="#6D7ECE"></rect>
        <path d="M369.924,112.4c-2.161-5.528-9.342-8.924-22.551-13.076-.418-.131-1.717-.449-3.03-.762a2.78,2.78,0,0,0-3.423,2.6s-1.6,6.966-13.354,6.966c-13.9,0-15.8-6.966-15.8-6.966a2.78,2.78,0,0,0-3.423-2.6c-1.314.313-2.613.631-3.031.762-13.209,4.152-20.389,7.548-22.55,13.076-7.586,19.4-19.142,80.416-19.142,80.416l17.209,4.514,14.47-51.2c2.065,7.679,2.722,31.134,2.722,31.134h16.486v0h23.671v0h16.043s1.1-23.455,3.165-31.134l14.47,51.2,17.209-4.514S377.509,131.8,369.924,112.4Z" fill="#71D650"></path>
        <path d="M369.924,112.4c-2.161-5.528-9.342-8.924-22.551-13.076-.418-.131-1.717-.449-3.03-.762a2.78,2.78,0,0,0-3.423,2.6s-1.6,6.966-13.354,6.966c-13.9,0-15.8-6.966-15.8-6.966a2.78,2.78,0,0,0-3.423-2.6c-1.314.313-2.613.631-3.031.762-13.209,4.152-20.389,7.548-22.55,13.076-7.586,19.4-19.142,80.416-19.142,80.416l17.209,4.514,14.47-51.2c2.065,7.679,2.722,31.134,2.722,31.134h16.486v0h23.671v0h16.043s1.1-23.455,3.165-31.134l14.47,51.2,17.209-4.514S377.509,131.8,369.924,112.4Z" fill="#fff" opacity="0.48"></path>
      </g>
      <g>
        <g opacity="0.15">
          <path d="M550.481,460.232H260.6a15.129,15.129,0,0,1-15.112-15.111V292.2A15.129,15.129,0,0,1,260.6,277.09H550.481A15.129,15.129,0,0,1,565.593,292.2V445.121A15.129,15.129,0,0,1,550.481,460.232ZM260.6,279.09A13.127,13.127,0,0,0,247.49,292.2V445.121A13.126,13.126,0,0,0,260.6,458.232H550.481a13.126,13.126,0,0,0,13.112-13.111V292.2a13.127,13.127,0,0,0-13.112-13.112Z" fill="#292a2e"></path>
        </g>
        <g opacity="0.43">
          <circle cx="412.366" cy="310.646" r="9.391" fill="#71D650"></circle>
          <circle cx="442.366" cy="310.646" r="9.391" fill="#71D650"></circle>
          <circle cx="472.366" cy="310.646" r="9.391" fill="#71D650"></circle>
          <circle cx="502.366" cy="310.646" r="9.391" fill="#71D650"></circle>
          <circle cx="532.366" cy="310.646" r="9.391" fill="#71D650"></circle>
        </g>
        <g opacity="0.15">
          <rect x="405.541" y="339.698" width="136.216" height="2" fill="#292a2e"></rect>
        </g>
        <g opacity="0.15">
          <rect x="405.541" y="359.698" width="136.216" height="2" fill="#292a2e"></rect>
        </g>
        <g opacity="0.15">
          <rect x="405.541" y="379.698" width="72.362" height="2" fill="#292a2e"></rect>
        </g>
        <g opacity="0.15">
          <path d="M542.757,434.253H496.235V419.437h46.522Zm-44.522-2h42.522V421.437H498.235Z" fill="#292a2e"></path>
        </g>
        <rect x="433.08" y="420.437" width="44.522" height="12.816" fill="#6D7ECE"></rect>
        <path d="M369.138,336.228c-3.244-4.014-10.392-6.575-18.744-8.605C347,326.8,344.7,326.49,344.7,326.49c-2.687,6.811-10.994,11.741-18.316,11.742h-.508c-7.322,0-15.2-4.931-17.889-11.742,0,0-2.3.309-5.7,1.133-8.351,2.03-15.5,4.591-18.743,8.605-4.986,6.167-11.964,29.381-11.964,29.381l20.231,8.43q.234.631.46,1.265.162.453.32.905c-.01-.03-.021-.059-.031-.089.025.07.05.142.073.213h0a157.376,157.376,0,0,1,7.168,31.5c.087-.028,52.986-.028,53.072,0a157.4,157.4,0,0,1,7.169-31.5h0c.024-.071.048-.142.074-.213q.142-.408.288-.816.226-.633.46-1.265l20.231-8.43S374.124,342.4,369.138,336.228Z" fill="#fff" opacity="0.48"></path>
        <path d="M369.138,336.228c-3.244-4.014-10.392-6.575-18.744-8.605C347,326.8,344.7,326.49,344.7,326.49c-2.687,6.811-10.994,11.741-18.316,11.742h-.508c-7.322,0-15.2-4.931-17.889-11.742,0,0-2.3.309-5.7,1.133-8.351,2.03-15.5,4.591-18.743,8.605-4.986,6.167-11.964,29.381-11.964,29.381l20.231,8.43q.234.631.46,1.265.162.453.32.905c-.01-.03-.021-.059-.031-.089.025.07.05.142.073.213h0a157.376,157.376,0,0,1,7.168,31.5c.087-.028,52.986-.028,53.072,0a157.4,157.4,0,0,1,7.169-31.5h0c.024-.071.048-.142.074-.213q.142-.408.288-.816.226-.633.46-1.265l20.231-8.43S374.124,342.4,369.138,336.228Z" fill="#71D650"></path>
        <path d="M369.138,336.228c-3.244-4.014-10.392-6.575-18.744-8.605C347,326.8,344.7,326.49,344.7,326.49c-2.687,6.811-10.994,11.741-18.316,11.742h-.508c-7.322,0-15.2-4.931-17.889-11.742,0,0-2.3.309-5.7,1.133-8.351,2.03-15.5,4.591-18.743,8.605-4.986,6.167-11.964,29.381-11.964,29.381l20.231,8.43q.234.631.46,1.265.162.453.32.905c-.01-.03-.021-.059-.031-.089.025.07.05.142.073.213h0a157.376,157.376,0,0,1,7.168,31.5c.087-.028,52.986-.028,53.072,0a157.4,157.4,0,0,1,7.169-31.5h0c.024-.071.048-.142.074-.213q.142-.408.288-.816.226-.633.46-1.265l20.231-8.43S374.124,342.4,369.138,336.228Z" fill="#fff" opacity="0.48"></path>
      </g>
      <g>
        <g opacity="0.15">
          <path d="M550.481,672.564H260.6a15.13,15.13,0,0,1-15.112-15.113V504.532A15.129,15.129,0,0,1,260.6,489.421H550.481a15.129,15.129,0,0,1,15.112,15.111V657.451A15.13,15.13,0,0,1,550.481,672.564ZM260.6,491.421a13.127,13.127,0,0,0-13.112,13.111V657.451A13.127,13.127,0,0,0,260.6,670.564H550.481a13.127,13.127,0,0,0,13.112-13.113V504.532a13.127,13.127,0,0,0-13.112-13.111Z" fill="#292a2e"></path>
        </g>
        <g opacity="0.43">
          <circle cx="412.366" cy="522.976" r="9.391" fill="#71D650"></circle>
          <circle cx="442.366" cy="522.976" r="9.391" fill="#71D650"></circle>
          <circle cx="472.366" cy="522.976" r="9.391" fill="#71D650"></circle>
          <circle cx="502.366" cy="522.976" r="9.391" fill="#71D650"></circle>
          <circle cx="532.366" cy="522.976" r="9.391" fill="#71D650"></circle>
        </g>
        <g opacity="0.15">
          <rect x="405.541" y="552.029" width="136.216" height="2" fill="#292a2e"></rect>
        </g>
        <g opacity="0.15">
          <rect x="405.541" y="572.029" width="136.216" height="2" fill="#292a2e"></rect>
        </g>
        <g opacity="0.15">
          <rect x="405.541" y="592.029" width="72.362" height="2" fill="#292a2e"></rect>
        </g>
        <g opacity="0.15">
          <path d="M542.757,646.584H496.235V631.768h46.522Zm-44.522-2h42.522V633.768H498.235Z" fill="#292a2e"></path>
        </g>
        <rect x="433.08" y="632.767" width="44.522" height="12.816" fill="#6D7ECE"></rect>
        <path d="M354.222,633.757a3.535,3.535,0,0,0,3.421-4.386c-3.592-14.934-3.865-43.047-.766-55.13l3.43-13.371-.006-.063a3.058,3.058,0,0,0-.841-2.529C346.491,544.969,348.2,531.3,348.2,531.3H342.61a27.435,27.435,0,0,1-.623,9.628c-1.4,5.524-5.125,11.656-14.568,13.129h0a30.658,30.658,0,0,1-9.053,0h0c-9.443-1.473-13.168-7.605-14.568-13.129a27.435,27.435,0,0,1-.623-9.628h-5.587s1.706,13.668-11.263,26.977a3.058,3.058,0,0,0-.841,2.529l-.047.063,3.43,13.371c3.1,12.083,2.826,40.2-.765,55.13a3.534,3.534,0,0,0,3.42,4.386Z" fill="#fff" opacity="0.48"></path>
        <path d="M354.222,633.757a3.535,3.535,0,0,0,3.421-4.386c-3.592-14.934-3.865-43.047-.766-55.13l3.43-13.371-.006-.063a3.058,3.058,0,0,0-.841-2.529C346.491,544.969,348.2,531.3,348.2,531.3H342.61a27.435,27.435,0,0,1-.623,9.628c-1.4,5.524-5.125,11.656-14.568,13.129h0a30.658,30.658,0,0,1-9.053,0h0c-9.443-1.473-13.168-7.605-14.568-13.129a27.435,27.435,0,0,1-.623-9.628h-5.587s1.706,13.668-11.263,26.977a3.058,3.058,0,0,0-.841,2.529l-.047.063,3.43,13.371c3.1,12.083,2.826,40.2-.765,55.13a3.534,3.534,0,0,0,3.42,4.386Z" fill="#71D650"></path>
        <path d="M354.222,633.757a3.535,3.535,0,0,0,3.421-4.386c-3.592-14.934-3.865-43.047-.766-55.13l3.43-13.371-.006-.063a3.058,3.058,0,0,0-.841-2.529C346.491,544.969,348.2,531.3,348.2,531.3H342.61a27.435,27.435,0,0,1-.623,9.628c-1.4,5.524-5.125,11.656-14.568,13.129h0a30.658,30.658,0,0,1-9.053,0h0c-9.443-1.473-13.168-7.605-14.568-13.129a27.435,27.435,0,0,1-.623-9.628h-5.587s1.706,13.668-11.263,26.977a3.058,3.058,0,0,0-.841,2.529l-.047.063,3.43,13.371c3.1,12.083,2.826,40.2-.765,55.13a3.534,3.534,0,0,0,3.42,4.386Z" fill="#fff" opacity="0.48"></path>
      </g>
    </g>
    <g>
      <g>
        <g>
          <path d="M678.028,830.035s-4.515,23.4-26.428,24.708-17.161,18.762-17.161,18.762h83.739V831.667Z" fill="#71D650"></path>
          <path d="M703.857,403.105s-.263-7.036-.207,8.923c.207,59.53,1.24,127.525,3.764,167.315,4.057,63.964,14.46,265.628,14.46,265.628l-55.026-.462L613.515,400.686Z" fill="#262626"></path>
          <path d="M641.718,473.3s-2.281,43.2-2.7,53.341c-.978,23.455-1.318,47.74-1.318,75.273l-8.673-72.18S635.37,507.116,641.718,473.3Z" fill="#0a0a0a"></path>
          <path d="M580.067,830.035s-4.515,23.4-26.428,24.708-17.161,18.762-17.161,18.762h83.739V831.667Z" fill="#71D650"></path>
          <path d="M553.424,407.727s-4.874,203.456-4.16,213.4l20.464,222.3,54.116,1-5.273-231.343s3.719-63.816,19.138-123.073a459.379,459.379,0,0,0,14.169-92.938h0Z" fill="#262626"></path>
          <path d="M704.455,403.1l.18.01S704.505,399.638,704.455,403.1Z" fill="#333"></path>
          <path d="M545.678,294.8c1.135,13.332,6.655,96.509,7.746,112.931H703.8c.85-14.811,4.664-79.575,7.885-108.538,3.075-27.638,9.108-41.476,4.686-49.646-7.226-13.354-26.972-21.071-40.436-22.894-8.222-1.113-20.587-1.911-20.587-1.911S654.3,245.919,629.331,247.1c-33.985,1.6-31.716-22.359-31.884-22.359-5.506,0-37.566,2.589-44.653,8.046C540.4,242.329,543.269,266.543,545.678,294.8Z" fill="#71D650"></path>
          <path d="M543.6,278.09a.5.5,0,0,1-.5-.471l-1.213-21.171a.5.5,0,0,1,.47-.528.505.505,0,0,1,.528.47l1.213,21.171a.5.5,0,0,1-.47.528Z" fill="#0c0c0c"></path>
        </g>
        <g>
          <path d="M736.306,406.856a27.454,27.454,0,0,0,25.755-36.951c-1.553-4.213-37.974-100.656-44.907-118.526l-51.339,20.8c3.9,10.048,18.023,48.132,29.371,78.811l-18.852-2.049L670.4,403.528l62.935,3.167A27.48,27.48,0,0,0,736.306,406.856Z" fill="#71D650"></path>
          <path id="h_3_sk" d="M579.532,222.912c.168-.022,4.781,17.336,40.778,14.635,24.92-1.867,31-18.83,31.568-18.83-2.687-.571-7.05-1.164-8.244-1.8-3.924-2.108-6.782-4.675-8.221-10.183-1.125-4.308-1.7-20.891-1.7-29.211l-38.347,8.617c.535,9.385,4.276,31.143-8.836,34.994C584.349,221.77,582,222.356,579.532,222.912Z" fill="#E98862"></path>
          <path d="M596.694,204.591c15.118,1.192,34.537-5.19,38.226-25.359l3.328-18.2c3.689-20.169-3.914-38.457-22.905-41.93h0c-18.99-3.473-36.175,10.281-39.863,30.45l-1.474,8.057C572.591,165.349,569.722,202.463,596.694,204.591Z" fill="#E98862"></path>
          <path d="M582.677,186.073c2.713-13.635,3.958-22.731,3.813-32.328-3.822-6.7-2.817-14.4-1.948-17.724a14.727,14.727,0,0,1-8.838,2.267s6.32-25.368,27.805-32.194c3.95-1.538,14.037-3.48,27.43-1.643,11.391,1.562,39.471,10.08,43.483,41.692h0v.018c.132,1.048,2.829,30.175,8.2,44.15,7.226,18.787,17.37,24.624,17.113,46.3-.331,27.881-51.588,31.592-82.5,29.506s-48.174-12.251-48.4-32.344C568.589,211.26,577.247,213.351,582.677,186.073Z" fill="#0a0a0a"></path>
        </g>
        <rect x="651.64" y="353.245" width="108.028" height="1" transform="translate(327.987 1046.891) rotate(-88.04)" fill="#0c0c0c"></rect>
        <g id="b_4_ha">
          <path d="M380.8,176.339l16.16,19.086-1-3.277a4.366,4.366,0,0,1,2.724-5.3,4.206,4.206,0,0,1,5.352,2.939l7.387,27.818a13.928,13.928,0,0,1-9.549,16.943h0a21.177,21.177,0,0,1-22.56-7.186l-11.828-15.009a4.307,4.307,0,0,1-.01-5.449,4.2,4.2,0,0,1,4.85-1.149.364.364,0,0,1,.462-.255l-2.191-2.77a4.364,4.364,0,0,1,.148-5.73,4.2,4.2,0,0,1,5.632-.342.364.364,0,0,1,.041-.127l-.9-1.136a4.54,4.54,0,0,1-.042-5.412,4.21,4.21,0,0,1,5.857-.612l.058-.057-6.79-8.019a3.966,3.966,0,0,1,.63-5.724A4.119,4.119,0,0,1,380.8,176.339Z" fill="#E98862"></path>
          <path id="b_4_ha_sh" d="M381.167,189.817a.375.375,0,0,0,.071.117l6.685,7.713a.4.4,0,0,0,.6-.518l-6.686-7.712a.395.395,0,0,0-.667.4Z" fill="#0c0c0c" opacity="0.2"></path>
          <path id="b_4_ha_sh-2" data-name="b_4_ha_sh" d="M376.386,196.838a.4.4,0,0,0,.069.115l5.207,6.1a.4.4,0,0,0,.6-.513l-5.208-6.1a.4.4,0,0,0-.67.4Z" fill="#0c0c0c" opacity="0.2"></path>
          <path id="b_4_ha_sh-3" data-name="b_4_ha_sh" d="M372.322,206.016a.363.363,0,0,0,.075.122l2.526,2.825a.4.4,0,1,0,.589-.527l-2.527-2.825a.4.4,0,0,0-.663.405Z" fill="#0c0c0c" opacity="0.2"></path>
        </g>
      </g>
      <path d="M460.567,356.05a29.5,29.5,0,0,1-25.274-14.286L369.905,233.135l50.549-30.428,49.709,82.581,82.631-52.5L587.8,279.725l-111.266,71.63A29.512,29.512,0,0,1,460.567,356.05Z" fill="#71D650"></path>
      <path d="M546.515,306.779a.5.5,0,0,1-.229-.944l14.278-7.367a.5.5,0,0,1,.459.889l-14.278,7.367A.5.5,0,0,1,546.515,306.779Z" fill="#0c0c0c"></path>
    </g>
    <g>
      <polygon points="319.187 872.312 283.777 872.312 269.445 727.198 304.855 727.198 319.187 872.312" fill="#71D650"></polygon>
      <polygon points="319.187 872.312 283.777 872.312 269.445 727.198 304.855 727.198 319.187 872.312" fill="#0a0a0a" opacity="0.21"></polygon>
      <polygon points="283.777 872.312 145.956 872.312 160.288 727.198 269.445 727.198 283.777 872.312" fill="#71D650"></polygon>
      <path d="M214.868,786.575a30.73,30.73,0,0,1-30.73-30.731V742.7a1.683,1.683,0,1,1,3.365,0v13.142a27.365,27.365,0,0,0,54.73,0V742.7a1.683,1.683,0,0,1,3.366,0v13.142A30.766,30.766,0,0,1,214.868,786.575Z" fill="#fff"></path>
      <polygon points="269.445 727.198 288.994 746.266 304.855 727.198 269.445 727.198" fill="#0a0a0a" opacity="0.08"></polygon>
      <polygon points="283.777 872.312 299.592 853.244 319.187 872.312 283.777 872.312" fill="#0a0a0a" opacity="0.08"></polygon>
    </g>
    <path d="M752.242,874.277H.773a.773.773,0,1,1,0-1.545H752.242a.773.773,0,1,1,0,1.545Z" fill="#3f3f3f"></path>
  </g>
</svg>