<svg id="Layer_1" data-name="Layer 1" xmlns="http://www.w3.org/2000/svg" viewBox="0 0 1057.866 687.482">
  <g>
    <rect x="920.892" y="453.667" width="2" height="225.684" transform="translate(-56.156 103.649) rotate(-6.245)" fill="#292a2e"></rect>
    <rect x="909.104" y="611.008" width="120.09" height="2" transform="translate(262.779 1514.696) rotate(-84.228)" fill="#292a2e"></rect>
    <rect x="905.346" y="657.208" width="89.616" height="29.083" fill="#292a2e"></rect>
    <rect x="905.346" y="657.208" width="89.616" height="29.083" fill="#fff" opacity="0.2"></rect>
    <ellipse cx="1000.171" cy="566.933" rx="51.126" ry="61.09" transform="translate(-54.185 1025.285) rotate(-53.042)" fill="#6D7ECE"></ellipse>
    <ellipse cx="1000.171" cy="566.933" rx="51.126" ry="61.09" transform="translate(-54.185 1025.285) rotate(-53.042)" fill="#fff" opacity="0.2"></ellipse>
    <path d="M1048.984,603.662a41.155,41.155,0,0,1-3.724,4.313c-18.687,11.94-46.271,10.06-68.153-6.408-26.958-20.28-35.048-55.015-18.07-77.578a43.14,43.14,0,0,1,3.714-4.314c18.7-11.948,46.271-10.059,68.163,6.4C1057.871,546.364,1065.961,581.1,1048.984,603.662Z" fill="#fff" opacity="0.5"></path>
    <ellipse cx="891.778" cy="476.407" rx="61.09" ry="52.607" transform="translate(-105.255 644.208) rotate(-37.665)" fill="#6D7ECE"></ellipse>
    <path d="M915.46,512.14c-20.683,15.975-46.969,18.41-66.024,8.01a46,46,0,0,1-6.014-6.417c-17.757-22.993-10.5-58.354,16.208-78.965,20.683-15.967,46.969-18.41,66.015-8.02a45.782,45.782,0,0,1,6.023,6.427C949.424,456.167,942.166,491.528,915.46,512.14Z" fill="#fff" opacity="0.2"></path>
  </g>
  <g>
    <polygon points="741.237 327.627 1048.415 328.081 1048.415 214.372 741.237 214.372 741.237 327.627" fill="#efefef"></polygon>
    <path d="M1021.967,245.91H767.685a.939.939,0,1,1,0-1.877h254.282a.939.939,0,1,1,0,1.877Z" fill="#fff"></path>
    <path d="M1021.967,274.073H767.685a.939.939,0,1,1,0-1.877h254.282a.939.939,0,1,1,0,1.877Z" fill="#fff"></path>
    <path d="M1021.967,302.236H870.948a.939.939,0,0,1,0-1.878h151.019a.939.939,0,0,1,0,1.878Z" fill="#fff"></path>
  </g>
  <g>
    <polygon points="374.729 148.442 2.996 148.533 3.024 0 374.729 0 374.729 148.442" fill="#efefef"></polygon>
    <path d="M346.967,32.866H30.786a.747.747,0,0,1,0-1.494H346.967a.747.747,0,1,1,0,1.494Z" fill="#fff"></path>
    <path d="M346.967,62.428H30.786a.747.747,0,0,1,0-1.494H346.967a.747.747,0,1,1,0,1.494Z" fill="#fff"></path>
    <path d="M346.967,91.989H30.786a.747.747,0,1,1,0-1.494H346.967a.747.747,0,1,1,0,1.494Z" fill="#fff"></path>
    <path d="M189.305,121.551H30.786a.747.747,0,0,1,0-1.494H189.305a.747.747,0,0,1,0,1.494Z" fill="#fff"></path>
  </g>
  <g>
    <g>
      <g>
        <rect x="174.814" y="69.801" width="734.688" height="553.975" rx="30" fill="#fff"></rect>
        <path d="M879.5,624.775H204.814a31.035,31.035,0,0,1-31-31V99.8a31.036,31.036,0,0,1,31-31H879.5a31.035,31.035,0,0,1,31,31V593.775A31.034,31.034,0,0,1,879.5,624.775ZM204.814,70.8a29.032,29.032,0,0,0-29,29V593.775a29.032,29.032,0,0,0,29,29H879.5a29.032,29.032,0,0,0,29-29V99.8a29.032,29.032,0,0,0-29-29Z" fill="#292a2e"></path>
      </g>
      <path d="M909.5,99.8v30.188H174.817V99.8a30,30,0,0,1,30-30H879.5A30,30,0,0,1,909.5,99.8Z" fill="#292a2e"></path>
    </g>
    <rect x="357.936" y="373.882" width="158.301" height="49.646" rx="24.823" fill="#71D650" opacity="0.2"></rect>
    <rect x="566.631" y="373.882" width="158.301" height="49.646" rx="24.823" fill="#71D650" opacity="0.2"></rect>
    <path d="M836.934,262.966a47.662,47.662,0,0,1-47.66,47.67H313.914a47.665,47.665,0,1,1,0-95.33h475.36A47.662,47.662,0,0,1,836.934,262.966Z" fill="#71D650" opacity="0.1"></path>
    <path d="M836.934,262.966a47.662,47.662,0,0,1-47.66,47.67h-73.84v-95.33h73.84A47.662,47.662,0,0,1,836.934,262.966Z" fill="#71D650"></path>
    <g>
      <path d="M332.67,277.94l-4.839-15.479q-.457-1.421-1.709-6.452h-.193q-.963,4.213-1.685,6.5l-4.983,15.431h-4.622l-7.2-26.384h4.188q2.551,9.942,3.888,15.142a61.409,61.409,0,0,1,1.529,7h.192q.266-1.372.855-3.551t1.023-3.454l4.839-15.142h4.333l4.719,15.142a51.178,51.178,0,0,1,1.829,6.957h.193a25.459,25.459,0,0,1,.518-2.672q.42-1.806,5.019-19.427h4.141l-7.3,26.384Z" fill="#0a0a0a"></path>
      <path d="M372.991,277.94l-4.839-15.479q-.458-1.421-1.709-6.452h-.192q-.964,4.213-1.685,6.5l-4.984,15.431H354.96l-7.2-26.384h4.189q2.551,9.942,3.888,15.142a61.33,61.33,0,0,1,1.528,7h.193q.266-1.372.855-3.551t1.023-3.454l4.839-15.142h4.333l4.718,15.142a51.055,51.055,0,0,1,1.83,6.957h.193a25.129,25.129,0,0,1,.517-2.672q.421-1.806,5.019-19.427h4.141l-7.294,26.384Z" fill="#0a0a0a"></path>
      <path d="M413.313,277.94l-4.839-15.479q-.458-1.421-1.709-6.452h-.193q-.963,4.213-1.685,6.5L399.9,277.94h-4.623l-7.2-26.384h4.189q2.552,9.942,3.888,15.142a61.409,61.409,0,0,1,1.529,7h.192q.266-1.372.855-3.551t1.023-3.454l4.839-15.142h4.333L413.65,266.7a51.178,51.178,0,0,1,1.829,6.957h.193a25.2,25.2,0,0,1,.518-2.672q.42-1.806,5.019-19.427h4.141l-7.3,26.384Z" fill="#0a0a0a"></path>
    </g>
    <g>
      <path d="M764.693,276.226a23.4,23.4,0,1,1,13.165-4.068A23.408,23.408,0,0,1,764.693,276.226ZM764.62,234.4a18.463,18.463,0,1,0,3.454.324A18.648,18.648,0,0,0,764.62,234.4Z" fill="#fff"></path>
      <path d="M799.194,296.535a2.493,2.493,0,0,1-1.917-.894l-20.849-24.877a2.5,2.5,0,0,1,3.832-3.212l20.849,24.877a2.5,2.5,0,0,1-1.915,4.106Z" fill="#fff"></path>
    </g>
  </g>
  <g>
    <path d="M37.495,633.4A37.5,37.5,0,0,1,2.316,582.922C4.437,577.167,54.389,441.7,63.86,417.289l69.922,27.127c-5.325,13.725-24.619,65.745-40.119,107.651l25.751-2.8,8.105,74.56-85.966,9.346A37.658,37.658,0,0,1,37.495,633.4Z" fill="#71D650"></path>
    <polygon points="82.435 629.565 71 686.482 293.099 686.482 280.306 628.482 82.435 629.565" fill="#262626"></polygon>
    <path id="b_1_b" d="M130.456,375.2c-18.556,1.376-37.477,7.406-51.41,19.739-21.015,18.6-19.145,30.23-8.654,81.744,9.026,44.325,5.446,63.694,11.484,145.486.178,2.41.559,7.394.559,7.394l198.5-.33s18.6-108.517,28.869-158.568c7.809-38.051,28.321-84.243-58.164-93.553C251.412,377.089,182.049,371.374,130.456,375.2Z" fill="#71D650"></path>
    <g>
      <path d="M537.007,334.169a44.583,44.583,0,1,1,42.854-32.237h0A44.664,44.664,0,0,1,537.007,334.169Zm-.031-79.179a34.683,34.683,0,1,0,9.627,1.369A34.752,34.752,0,0,0,536.976,254.99Z" fill="#0a0a0a"></path>
      <path d="M499.359,389.114a5,5,0,0,1-4.643-6.852l22.742-57.057a5,5,0,0,1,9.289,3.7l-22.742,57.058A5,5,0,0,1,499.359,389.114Z" fill="#0a0a0a"></path>
    </g>
    <g>
      <path d="M481.948,382.855l13.946-31.283a5.42,5.42,0,0,1,7.591-2.526,5.609,5.609,0,0,1,2.194,7.2l-2.99,6.708,19.086-16.778c2.089-1.9,5.87-2.9,7.85-.416a5.417,5.417,0,0,1,.445,6.73.356.356,0,0,1,.063.052.376.376,0,0,1,.032.055l3.222-2.934a5.425,5.425,0,0,1,8.328,1.266,5.549,5.549,0,0,1-1.18,6.884l-1.371,1.249a.508.508,0,0,1,.022.173,5.419,5.419,0,0,1,6.888,1.355,5.594,5.594,0,0,1-.787,7.554l-3.405,3.1a.5.5,0,0,1,.43.157.5.5,0,0,1,.111.255,5.425,5.425,0,0,1,6.028,2.634,5.545,5.545,0,0,1-1.249,6.768l-28.735,26.161a27.294,27.294,0,0,1-30.192,4.42h0a18.01,18.01,0,0,1-8.651-23.567Z" fill="#E98862"></path>
      <g opacity="0.2">
        <path d="M511.26,369.187a.5.5,0,0,0,.7.036l18.131-15.979a.5.5,0,1,0-.662-.75L511.3,368.473a.5.5,0,0,0-.044.706Z" fill="#0c0c0c"></path>
      </g>
      <g opacity="0.2">
        <path d="M518.087,377.378a.5.5,0,0,0,.7.036l20.234-17.833a.5.5,0,0,0,.044-.706.518.518,0,0,0-.706-.044l-20.234,17.832a.5.5,0,0,0-.044.706Z" fill="#0c0c0c"></path>
      </g>
      <g opacity="0.2">
        <path d="M525.43,386.291a.5.5,0,0,0,.7.036l16.14-14.224a.5.5,0,1,0-.662-.75l-16.14,14.224a.5.5,0,0,0-.044.706Z" fill="#0c0c0c"></path>
      </g>
    </g>
    <path d="M473.231,372.7l-84.557,95.221L303.232,394l-49.071,56.719,113.43,98.136.765.661q.4.34.805.671a36.668,36.668,0,0,0,51.57-5.441L524.658,416.3Z" fill="#71D650"></path>
    <g>
      <path id="h_3_sk" d="M251.64,377.117c-.23-.03-6.53,23.68-55.7,19.99-34.04-2.55-42.34-25.72-43.12-25.72,3.67-.78,9.63-1.59,11.26-2.46,5.36-2.88,9.264-6.386,11.23-13.91,1.537-5.884,2.32-28.535,2.32-39.9l52.38,11.77c-.73,12.82-5.84,42.54,12.07,47.8C245.06,375.557,248.27,376.357,251.64,377.117Z" fill="#E98862"></path>
      <path d="M228.2,352.092c-20.649,1.629-47.175-7.09-52.214-34.64l-4.546-24.858c-5.039-27.55,5.347-52.53,31.287-57.274h0c25.939-4.744,49.413,14.044,54.451,41.594l2.013,11C261.121,298.49,265.04,349.185,228.2,352.092Z" fill="#E98862"></path>
      <path d="M247.344,326.8c-3.706-18.624-5.406-31.049-5.209-44.158,5.221-9.158,3.848-19.668,2.661-24.21,5.117,2.792,7.257,3.1,12.073,3.1,0,0-8.634-34.651-37.98-43.975-5.4-2.1-19.174-4.753-37.468-2.244-15.56,2.134-53.916,13.769-59.4,56.95h0v.025c-.182,1.432-3.864,41.218-11.206,60.307-9.871,25.661-23.727,33.634-23.376,63.241.452,38.084,70.466,43.154,112.7,40.305s65.8-16.735,66.108-44.181C266.587,361.2,254.76,364.058,247.344,326.8Z" fill="#0a0a0a"></path>
      <path d="M247.356,311.186c-7.883,1.441-15.816-5.823-17.257-13.706s4.153-13.4,12.036-14.841Z" fill="#E98862"></path>
    </g>
    <path d="M305.061,495.253a.488.488,0,0,1-.093-.009.5.5,0,0,1-.4-.584L309.6,468a.5.5,0,1,1,.982.185l-5.031,26.662A.5.5,0,0,1,305.061,495.253Z" fill="#0c0c0c"></path>
    <path d="M82.435,630.065a.5.5,0,0,1-.5-.48L75.715,468.11a.5.5,0,0,1,.48-.52.525.525,0,0,1,.519.481l6.221,161.475a.5.5,0,0,1-.481.519Z" fill="#0c0c0c"></path>
    <path d="M383,476.123a.5.5,0,0,1-.4-.8l5.677-7.7a.5.5,0,0,1,.805.593L383.4,475.92A.5.5,0,0,1,383,476.123Z" fill="#0c0c0c"></path>
  </g>
  <path d="M22.765,687.482h999.641a1,1,0,0,0,0-2H22.765a1,1,0,1,0,0,2Z" fill="#292a2e"></path>
</svg>