<svg id="Layer_1" data-name="Layer 1" xmlns="http://www.w3.org/2000/svg" viewBox="0 0 978.465 761.3">
  <g>
    <rect x="665.355" width="124.956" height="162.646" fill="#f4f4f4"></rect>
    <rect x="790.312" width="4.053" height="162.646" transform="translate(1584.677 162.646) rotate(180)" fill="#f4f4f4"></rect>
    <rect x="790.312" width="4.053" height="162.646" transform="translate(1584.677 162.646) rotate(180)" fill="#292a2e" opacity="0.05"></rect>
    <rect x="688.118" y="29.628" width="79.432" height="103.39" fill="#292a2e" opacity="0.05"></rect>
    <rect x="763.409" y="29.628" width="4.14" height="103.39" fill="#292a2e" opacity="0.03"></rect>
    <rect x="790.312" y="202.643" width="102.194" height="103.132" fill="#f4f4f4"></rect>
    <rect x="808.928" y="221.43" width="64.962" height="65.559" fill="#292a2e" opacity="0.05"></rect>
    <rect x="892.505" y="202.643" width="4.053" height="103.132" transform="translate(1789.064 508.418) rotate(180)" fill="#f4f4f4"></rect>
    <rect x="892.505" y="202.643" width="4.053" height="103.132" transform="translate(1789.064 508.418) rotate(180)" fill="#292a2e" opacity="0.05"></rect>
    <rect x="869.75" y="221.43" width="4.14" height="65.559" fill="#292a2e" opacity="0.03"></rect>
  </g>
  <g>
    <rect id="c_3_c" x="188.118" y="16.93" width="367.668" height="367.668" fill="#f4f4f4"></rect>
    <rect id="c_3_c-2" data-name="c_3_c" x="555.786" y="16.93" width="4.214" height="367.668" fill="#f4f4f4"></rect>
    <rect id="c_3_c-3" data-name="c_3_c" x="555.786" y="16.93" width="4.214" height="367.668" fill="#292a2e" opacity="0.05"></rect>
    <polygon id="c_3_c-4" data-name="c_3_c" points="466.717 270.283 466.717 174.089 387.92 174.089 387.92 229.976 265.863 229.976 265.863 328.93 213.987 328.93 213.987 384.598 265.863 384.598 275.857 384.598 538.1 384.598 538.1 270.283 466.717 270.283" fill="#292a2e" opacity="0.05"></polygon>
    <g id="c_3_wh">
      <rect id="c_3_wh-2" data-name="c_3_wh" x="398.034" y="184.533" width="57.381" height="10.444" fill="#fffffa" opacity="0.34"></rect>
      <rect id="c_3_wh-3" data-name="c_3_wh" x="398.034" y="206.177" width="57.381" height="10.444" fill="#fffffa" opacity="0.34"></rect>
      <rect id="c_3_wh-4" data-name="c_3_wh" x="398.034" y="227.82" width="57.381" height="10.444" fill="#fffffa" opacity="0.34"></rect>
    </g>
    <g id="c_3_wh-5" data-name="c_3_wh">
      <rect id="c_3_wh-6" data-name="c_3_wh" x="517.348" y="280.421" width="10.576" height="10.444" fill="#fffffa" opacity="0.34"></rect>
      <rect id="c_3_wh-7" data-name="c_3_wh" x="517.348" y="302.064" width="10.576" height="10.444" fill="#fffffa" opacity="0.34"></rect>
      <rect id="c_3_wh-8" data-name="c_3_wh" x="517.348" y="323.708" width="10.576" height="10.444" fill="#fffffa" opacity="0.34"></rect>
      <rect id="c_3_wh-9" data-name="c_3_wh" x="497.783" y="280.421" width="10.576" height="10.444" fill="#fffffa" opacity="0.34"></rect>
      <rect id="c_3_wh-10" data-name="c_3_wh" x="497.783" y="302.064" width="10.576" height="10.444" fill="#fffffa" opacity="0.34"></rect>
      <rect id="c_3_wh-11" data-name="c_3_wh" x="497.783" y="323.708" width="10.576" height="10.444" fill="#fffffa" opacity="0.34"></rect>
      <rect id="c_3_wh-12" data-name="c_3_wh" x="478.746" y="280.421" width="10.576" height="10.444" fill="#fffffa" opacity="0.34"></rect>
      <rect id="c_3_wh-13" data-name="c_3_wh" x="478.746" y="302.064" width="10.576" height="10.444" fill="#fffffa" opacity="0.34"></rect>
      <rect id="c_3_wh-14" data-name="c_3_wh" x="478.746" y="323.708" width="10.576" height="10.444" fill="#fffffa" opacity="0.34"></rect>
    </g>
    <polygon points="555.786 198.701 481.805 198.701 481.805 16.93 475.687 16.93 475.687 198.701 275.857 198.701 275.857 16.93 269.738 16.93 269.738 198.701 188.118 198.701 188.118 204.82 269.738 204.82 269.738 384.598 275.857 384.598 275.857 204.82 475.687 204.82 475.687 384.598 481.805 384.598 481.805 204.82 555.786 204.82 555.786 198.701" fill="#fff"></polygon>
    <rect id="c_3_c-5" data-name="c_3_c" x="173.471" y="384.154" width="396.961" height="12.227" fill="#f4f4f4"></rect>
    <rect id="c_3_c-6" data-name="c_3_c" x="173.471" y="384.154" width="396.961" height="12.227" fill="#292a2e" opacity="0.1"></rect>
    <rect id="c_3_c-7" data-name="c_3_c" x="570.433" y="384.154" width="5.731" height="12.227" fill="#292a2e" opacity="0.1"></rect>
    <rect id="c_3_c-8" data-name="c_3_c" x="570.433" y="384.154" width="5.731" height="12.227" fill="#292a2e" opacity="0.1"></rect>
  </g>
  <g>
    <g>
      <rect x="726.446" y="745.306" width="21.003" height="14.026" fill="#292a2e" opacity="0.05"></rect>
      <rect x="858.295" y="745.306" width="21.003" height="14.026" fill="#292a2e" opacity="0.05"></rect>
    </g>
    <rect x="707.194" y="531.599" width="191.357" height="213.707" fill="#f4f4f4"></rect>
    <rect x="707.194" y="531.599" width="191.357" height="213.707" fill="#292a2e" opacity="0.03"></rect>
    <rect x="656.372" y="531.599" width="191.357" height="213.707" fill="#f4f4f4"></rect>
    <g>
      <rect x="675.625" y="745.306" width="21.003" height="14.026" fill="#292a2e" opacity="0.05"></rect>
      <rect x="807.474" y="745.306" width="21.003" height="14.026" fill="#292a2e" opacity="0.05"></rect>
    </g>
    <rect x="666.667" y="544.812" width="170.767" height="54.202" fill="#fff" opacity="0.7"></rect>
    <rect x="666.667" y="612.281" width="170.767" height="54.202" fill="#fff" opacity="0.7"></rect>
    <rect x="666.667" y="679.748" width="170.767" height="54.202" fill="#fff" opacity="0.7"></rect>
    <circle cx="752.05" cy="571.913" r="7.584" fill="#292a2e" opacity="0.05"></circle>
    <circle cx="752.05" cy="639.382" r="7.584" fill="#292a2e" opacity="0.05"></circle>
    <circle cx="752.05" cy="706.85" r="7.584" fill="#292a2e" opacity="0.05"></circle>
  </g>
  <g>
    <rect x="419.588" y="80.634" width="324.241" height="661.255" rx="37.372" fill="#292a2e"></rect>
    <rect x="431.415" y="92.304" width="300.587" height="637.043" rx="25.662" fill="#fff"></rect>
    <path d="M520.146,87.478H643.271a0,0,0,0,1,0,0v12.74A13.777,13.777,0,0,1,629.494,114H533.923a13.777,13.777,0,0,1-13.777-13.777V87.478A0,0,0,0,1,520.146,87.478Z" fill="#292a2e"></path>
    <rect x="495.2" y="497.637" width="173.018" height="71.276" rx="15.213" fill="#71D650" opacity="0.8"></rect>
    <path d="M668.212,553.7v7A15.21,15.21,0,0,1,653,575.912H510.412A15.21,15.21,0,0,1,495.2,560.7v-7a15.21,15.21,0,0,0,15.21,15.21H653A15.21,15.21,0,0,0,668.212,553.7Z" fill="#71D650"></path>
    <path d="M572.2,554.331a2.5,2.5,0,0,1-1.626-.6l-16.321-13.987a2.5,2.5,0,0,1,3.254-3.8l14.482,12.412,33.7-36.871a2.5,2.5,0,0,1,3.691,3.373l-35.331,38.658A2.5,2.5,0,0,1,572.2,554.331Z" fill="#fff"></path>
    <g opacity="0.5">
      <path d="M691.452,312.509c0,11.329-11.01,20.78-14.329,31-3.44,10.6-.207,24.69-6.625,33.509-6.482,8.907-20.93,10.157-29.837,16.639-8.819,6.418-14.437,19.808-25.032,23.249-10.222,3.319-22.591-4.1-33.921-4.1s-23.7,7.422-33.92,4.1c-10.6-3.44-16.214-16.831-25.032-23.249-8.908-6.482-23.355-7.732-29.837-16.639-6.418-8.819-3.185-22.914-6.625-33.509-3.32-10.222-14.33-19.674-14.33-31s11.01-20.781,14.33-31c3.44-10.595.207-24.69,6.625-33.509,6.482-8.907,20.929-10.157,29.837-16.639,8.818-6.418,14.436-19.809,25.031-23.249,10.223-3.319,22.592,4.1,33.921,4.1s23.7-7.422,33.921-4.1c10.6,3.44,16.213,16.83,25.032,23.249,8.907,6.482,23.355,7.732,29.837,16.639,6.418,8.819,3.185,22.913,6.625,33.508C680.442,291.728,691.452,301.18,691.452,312.509Z" fill="#71D650"></path>
    </g>
    <rect x="614.774" y="254.209" width="28.174" height="124.391" transform="translate(1257.721 632.809) rotate(180)" fill="#71D650"></rect>
    <path d="M592.265,281.921a27.8,27.8,0,1,1,27.8-27.8A27.831,27.831,0,0,1,592.265,281.921Zm0-52.6a24.8,24.8,0,1,0,24.8,24.8A24.829,24.829,0,0,0,592.265,229.32Z" fill="#71D650"></path>
    <path d="M595.42,254.209c0-.03,0-.059,0-.088a27.8,27.8,0,1,0-55.6,0c0,.029,0,.058,0,.088H520.469V378.6h94.3V254.209Zm-52.6-.088a24.8,24.8,0,1,1,49.6,0c0,.029,0,.058,0,.088h-49.6C542.823,254.179,542.821,254.15,542.821,254.121Z" fill="#fff"></path>
  </g>
  <path d="M80.432,740.817l-2.162,13.7a6.351,6.351,0,0,1-6.212,5.361l-55.071.535a3.486,3.486,0,0,1-1.56-6.619l33.062-16.108Z" fill="#E98862"></path>
  <g>
    <path d="M891.407,630.159a1,1,0,0,1-.707-.293c-1.409-1.408-3.706-27.258-9.892-104.222-2.531-31.493-4.922-61.239-6.667-79.316-.124-1.291-.625-1.442-.789-1.491-2.386-.709-9.653,5.007-13.707,10.023a1,1,0,0,1-1.556-1.258c2.682-3.316,11.418-12,15.838-10.681.891.268,2,1.043,2.206,3.215,1.746,18.093,4.137,47.847,6.669,79.348,3.759,46.769,8.018,99.754,9.417,103.091a1,1,0,0,1-.812,1.584Z" fill="#494949"></path>
    <ellipse cx="853.811" cy="457.345" rx="38.507" ry="28.398" transform="translate(-98.435 634.503) rotate(-38.715)" fill="#6D7ECE"></ellipse>
    <ellipse cx="853.811" cy="457.345" rx="38.507" ry="28.398" transform="translate(-98.435 634.503) rotate(-38.715)" fill="#fff" opacity="0.2"></ellipse>
    <path d="M828.417,484.538a.5.5,0,0,1-.385-.82l47.291-57.028a.5.5,0,0,1,.77.639L828.8,484.357A.5.5,0,0,1,828.417,484.538Z" fill="#fff"></path>
    <path d="M901.721,617.933a.971.971,0,0,1-.328-.056,1,1,0,0,1-.616-1.272l17.764-51.087a9.5,9.5,0,0,1,15.529-3.748l9.391,8.972a1,1,0,1,1-1.382,1.445l-9.391-8.972a7.5,7.5,0,0,0-12.259,2.959l-17.763,51.087A1,1,0,0,1,901.721,617.933Z" fill="#494949"></path>
    <ellipse cx="945.801" cy="568.827" rx="28.398" ry="38.507" transform="translate(-148.833 709.822) rotate(-38.363)" fill="#6D7ECE"></ellipse>
    <path d="M883.337,626.9a1,1,0,0,1-.972-.768L852.554,501.489a4.75,4.75,0,0,0-8.212-2L835.153,510.1a1,1,0,1,1-1.513-1.309l9.189-10.619a6.752,6.752,0,0,1,11.671,2.848l29.81,124.645a1,1,0,0,1-.74,1.205A1.036,1.036,0,0,1,883.337,626.9Z" fill="#494949"></path>
    <ellipse cx="844.355" cy="532.954" rx="38.507" ry="28.398" transform="translate(175.323 1274.151) rotate(-80.189)" fill="#6D7ECE"></ellipse>
    <path d="M891.408,630.159a.847.847,0,0,1-.123-.008,1,1,0,0,1-.871-1.114L909.45,474.479a8.806,8.806,0,0,1,15.342-4.752L946.55,494.37a1,1,0,1,1-1.5,1.324l-21.758-24.643a6.806,6.806,0,0,0-11.857,3.672L892.4,629.281A1,1,0,0,1,891.408,630.159Z" fill="#494949"></path>
    <ellipse cx="935.17" cy="489.426" rx="28.398" ry="38.507" transform="translate(54.246 1070.849) rotate(-61.051)" fill="#6D7ECE"></ellipse>
    <ellipse cx="945.801" cy="568.827" rx="28.398" ry="38.507" transform="translate(-148.833 709.822) rotate(-38.363)" fill="#fff" opacity="0.2"></ellipse>
    <ellipse cx="844.355" cy="532.954" rx="38.507" ry="28.398" transform="translate(175.323 1274.151) rotate(-80.189)" fill="#fff" opacity="0.5"></ellipse>
    <ellipse cx="935.17" cy="489.426" rx="28.398" ry="38.507" transform="translate(54.246 1070.849) rotate(-61.051)" fill="#fff" opacity="0.5"></ellipse>
    <polygon points="915.755 761.3 867.059 761.3 858.989 605.496 923.824 605.496 915.755 761.3" fill="#292a2e"></polygon>
    <polygon points="915.755 761.3 867.059 761.3 858.989 605.496 923.824 605.496 915.755 761.3" fill="#fff" opacity="0.3"></polygon>
    <path d="M969.7,599.52a.5.5,0,0,1-.392-.189l-47.8-60.387a.5.5,0,0,1,.784-.621l47.8,60.387a.5.5,0,0,1-.392.81Z" fill="#fff"></path>
    <path d="M965.687,512.9a.494.494,0,0,1-.295-.1l-61.166-44.661a.5.5,0,1,1,.59-.808L965.982,512a.5.5,0,0,1-.295.9Z" fill="#fff"></path>
    <path d="M835.312,570.251a.519.519,0,0,1-.129-.017.5.5,0,0,1-.354-.612L854.3,496.669a.507.507,0,0,1,.611-.355.5.5,0,0,1,.354.612L835.8,569.879A.5.5,0,0,1,835.312,570.251Z" fill="#fff"></path>
  </g>
  <g>
    <path d="M144.851,670.984s-.372,80.818,58.113,88.3l55.061-50.393,34.137-68.09L164.387,654.9Z" fill="#262626"></path>
    <path d="M143.277,666.582l-.175.046S142.533,663.2,143.277,666.582Z" fill="#333"></path>
    <g>
      <path d="M368.75,431.944c-.006-.035-.039-.059-.056-.09l.7-1.027a3.645,3.645,0,0,0-.309-4.6,3.562,3.562,0,0,0-5.49.472l-1.622,2.368c-.011-.01-.011-.028-.024-.037s-.038,0-.055-.013a3.556,3.556,0,0,0-1.293-4.245c-1.641-1.29-3.907-.081-4.955,1.45l-9.668,13.6.9-4.722a3.7,3.7,0,0,0-2.609-4.318,3.559,3.559,0,0,0-4.347,2.793l-4.892,25.783a11.829,11.829,0,0,0,9.086,13.758h0a17.928,17.928,0,0,0,18.632-7.381S370.048,430.752,368.75,431.944Z" fill="#E98862"></path>
      <g>
        <path d="M360.329,392.925l2.939.286a2.248,2.248,0,0,1,2.139,2.441l-7.487,60.541a2.521,2.521,0,0,1-2.745,2.068l-3.367-.248Z" fill="#292a2e"></path>
        <g>
          <path d="M352.344,458.076l-6.235-.471a2.04,2.04,0,0,1-1.989-2.212l7.484-61.066a2.281,2.281,0,0,1,2.489-1.873l6.236.471a2.041,2.041,0,0,1,1.989,2.212L354.834,456.2A2.282,2.282,0,0,1,352.344,458.076Z" fill="#292a2e"></path>
          <path d="M351.708,456.818l-5.523-.454a1.4,1.4,0,0,1-1.366-1.519l7.421-59.966a1.568,1.568,0,0,1,1.71-1.286l5.45.459a1.4,1.4,0,0,1,1.365,1.519l-7.348,59.961A1.566,1.566,0,0,1,351.708,456.818Z" fill="#fff"></path>
          <path d="M358.017,396.068l-2.418-.183a.751.751,0,0,1-.733-.815l.228-1.86,4.069.308-.228,1.859A.842.842,0,0,1,358.017,396.068Z" fill="#292a2e"></path>
        </g>
      </g>
      <path d="M347.719,438.437a3.551,3.551,0,0,1,3.776-1.609.323.323,0,0,1,.056-.182.316.316,0,0,1,.3-.094l-2.3-1.964a3.694,3.694,0,0,1-.818-4.784,3.556,3.556,0,0,1,4.615-1.206c0-.036.023-.067.031-.1l-.947-.807a3.647,3.647,0,0,1-.9-4.523,3.563,3.563,0,0,1,5.423-.979l2.185,1.863c.008-.013,0-.03.012-.042s.036-.014.051-.027a3.557,3.557,0,0,1,.139-4.436c1.247-1.673,3.75-1.1,5.162.106l4.154,4.141a5.491,5.491,0,0,1,1.507,4.963c-1.529,7.681-6,27.648-10.509,23.8l-11.1-9.464A3.812,3.812,0,0,1,347.719,438.437Z" fill="#E98862"></path>
    </g>
    <path d="M325.841,457.232,309.53,545.494l-41.693-64.258-31.853,37.421L302.417,609.4l.563.526a27.232,27.232,0,0,0,44.476-12.558l27.362-132.278Z" fill="#71D650"></path>
    <path d="M307.268,554.175a.507.507,0,0,1-.133-.018.5.5,0,0,1-.349-.614l2.262-8.182a.5.5,0,0,1,.964.266l-2.262,8.181A.5.5,0,0,1,307.268,554.175Z" fill="#0c0c0c"></path>
    <g>
      <g>
        <path d="M131.49,402.163s-2.624,23.492-8.307,31.8c-16.362,23.928-22.022,51.416-7.387,66.564S227.9,520.239,236.773,487.3c7.47-27.73-5.737-31.339-7.949-54.59-1-10.52-4.062-32.623-4.062-32.623" fill="#0a0a0a"></path>
        <path id="sk" d="M219.521,470.709c-.169.012,4.226,30.769-31.612,35.353-24.81,3.177-38.834-20.962-39.394-20.847,2.519-1.1,6.672-2.987,7.831-3.688,4.385-2.651,7.744-5.982,7.453-13.708-.168-4.453-5.9-26.237-6.415-30.67l39.222.685c1.362,9.31,2.066,31.395,15.7,32.537C214.569,470.557,216.991,470.659,219.521,470.709Z" fill="#E98862"></path>
        <path id="sh" d="M202.377,463.32a27.7,27.7,0,0,1-2.321-5.59,63.349,63.349,0,0,1-2.53-13.59,41.974,41.974,0,0,1-22.59-4.834c-.17,2.715-1.7,14.738-.135,16.966C177.752,460.481,188.722,466.118,202.377,463.32Z" fill="#0c0c0c" opacity="1"></path>
        <path d="M192.427,460.066c-15.145.784-34.387-6.12-37.53-26.383L152.061,415.4c-3.144-20.262,4.95-38.339,24.028-41.3h0c19.078-2.959,35.886,11.254,39.03,31.517l1.256,8.094C217.581,421.486,219.448,458.666,192.427,460.066Z" fill="#E98862"></path>
        <path d="M199.349,432.345l.037,0a21.361,21.361,0,0,0,2.293-.5c1.127-.322,2.607-.867,2.45-1.88-.179-1.154-5.274-13.12-5.855-14.481a.487.487,0,1,0-.9.382c2.174,5.1,5.667,13.471,5.788,14.249-.138.354-2.011.973-3.929,1.271a.487.487,0,0,0,.112.967Z" fill="#0c0c0c" opacity="1"></path>
        <path d="M196.253,440.946a19.918,19.918,0,0,0,8.736-2.992.487.487,0,1,0-.5-.833c-5.7,3.451-11.267,3.856-16.094,1.17a2.941,2.941,0,0,0-.3-.156.487.487,0,0,0-.361.905c.038.017.1.053.188.1A14.611,14.611,0,0,0,196.253,440.946Z" fill="#0c0c0c" opacity="1"></path>
        <path d="M136.683,421.23l17.1-2.553c13.044-4.782,17.675-26.935,17.675-26.935s15.13,15.756,53.305,8.345c0,0-5.846-53.09-62.329-39.581-18.213,4.356-31.769,22.115-30.961,46.476C132.038,424.054,136.683,421.23,136.683,421.23Z" fill="#0a0a0a"></path>
        <path d="M157.04,439.673c-5.8.9-11.46-4.574-12.36-10.372s3.305-9.724,9.1-10.624l3.59,3.421,4.652,16.8Z" fill="#E98862"></path>
        <path d="M202.065,405.961a11.165,11.165,0,0,1,5.681-1.588,9.826,9.826,0,0,1,2.911.406,11.562,11.562,0,0,1,2.672,1.162.509.509,0,0,1-.472.9l-.035-.017a10.523,10.523,0,0,0-2.457-.938,8.64,8.64,0,0,0-2.586-.241,9.782,9.782,0,0,0-4.841,1.57l-.047.031a.764.764,0,1,1-.855-1.267Z" fill="#0c0c0c"></path>
        <path d="M186.79,409.028a9.766,9.766,0,0,0-5.089-.052,8.628,8.628,0,0,0-2.4,1,10.489,10.489,0,0,0-2.064,1.628l-.028.027a.509.509,0,0,1-.721-.719,11.619,11.619,0,0,1,2.2-1.907,9.835,9.835,0,0,1,2.658-1.257,11.135,11.135,0,0,1,5.895-.181.764.764,0,1,1-.37,1.483l-.031-.009Z" fill="#0c0c0c"></path>
        <path d="M196.759,445.539a9.933,9.933,0,0,0,1.667-.278.487.487,0,0,0-.238-.944c-3.29.829-5.1-.474-5.178-.53a.487.487,0,0,0-.586.778A6.606,6.606,0,0,0,196.759,445.539Z" fill="#0c0c0c" opacity="1"></path>
        <path d="M153.826,418.463l-.153-.476c21.8-7.02,17.225-28.322,17.176-28.536l.488-.112C171.386,389.558,176.058,411.305,153.826,418.463Z" fill="#0c0c0c"></path>
        <ellipse cx="183.774" cy="430.008" rx="4.53" ry="3.323" transform="translate(-31.313 14.776) rotate(-4.243)" fill="#0c0c0c" opacity="0.1"></ellipse>
        <path d="M210.566,427.218c.141,1.827,2.273,3.159,4.768,2.977a6.241,6.241,0,0,0,1.273-.229c.212-2.162.313-4.247.335-6.18a5.71,5.71,0,0,0-2.1-.218C212.344,423.75,210.432,425.383,210.566,427.218Z" fill="#0c0c0c" opacity="0.1"></path>
        <circle cx="210.559" cy="412.802" r="2.378" fill="#0c0c0c"></circle>
        <circle cx="187.019" cy="415.18" r="2.378" fill="#0c0c0c"></circle>
      </g>
      <path d="M277.08,528.61c1.565,13.288,12.854,95.881,15.082,112.187L144.851,670.984c-3.805-14.339-20.543-77.019-29.513-104.746-8.561-26.458-16.651-39.918-14.577-52.76,2.42-14.989,22.213-20.991,35.037-25.48,7.831-2.74,19.784-6,19.784-6s5.278,20.539,29.972,16.682c33.616-5.252,26.582-28.271,26.747-28.305,5.393-1.1,32.3-2.934,40.753-.01C276.088,478.316,273.768,500.448,277.08,528.61Z" fill="#71D650"></path>
    </g>
    <rect x="281.435" y="536.973" width="1" height="51.833" transform="matrix(0.99, -0.144, 0.144, 0.99, -78.323, 46.608)" fill="#0c0c0c"></rect>
    <path d="M88.177,749.48,40.008,736.074C62.293,656,98.471,524.294,100.68,511.785a20.446,20.446,0,0,0-.237,3.579l49.995-.707c.07,4.925.112,7.9-31.522,123.452C103.729,693.588,88.331,748.927,88.177,749.48Z" fill="#71D650"></path>
    <rect x="109.441" y="585.134" width="46.59" height="1" transform="translate(-467.747 588.295) rotate(-77.483)" fill="#0c0c0c"></rect>
    <path d="M244.619,654.275s131.352-67.859,167.736-80.41c9.425-3.251,26.646-6.244,41.408,2.387C497.8,602,614.085,706.839,614.085,706.839L585.837,749.05,432.217,639.035s-73.606,52.512-140.055,75.608l-67.072-7.924Z" fill="#262626"></path>
    <path d="M631.354,719.05s23.527-3.824,25.476-25.689,19.258-16.6,19.258-16.6l-2.466,83.7L631.8,759.23Z" fill="#71D650"></path>
    <path d="M202.964,759.28s-7.025-.47,8.926.055c59.5,1.961,433.1.981,433.1.981l.189-56.044L203.09,672.9Z" fill="#262626"></path>
    <path d="M361.884,684.484a.454.454,0,0,1-.063,0l-43.575-5.492a.5.5,0,0,1-.433-.559.491.491,0,0,1,.558-.433l43.575,5.492a.5.5,0,0,1-.062,1Z" fill="#fff"></path>
    <path d="M610.265,701.911h-.036l-104.7-7.418a.5.5,0,0,1-.463-.534.5.5,0,0,1,.533-.464l104.7,7.418a.5.5,0,0,1-.035,1Z" fill="#fff"></path>
  </g>
  <path d="M953.263,761.3H.737a.737.737,0,1,1,0-1.473H953.263a.737.737,0,1,1,0,1.473Z" fill="#292a2e"></path>
</svg>